<svg xmlns="http://www.w3.org/2000/svg" xmlns:xlink="http://www.w3.org/1999/xlink" viewBox="0 0 512 512" width="512"
  height="512" preserveAspectRatio="xMidYMid meet"
  style="width: 100%; height: 100%; transform: translate3d(0px, 0px, 0px); content-visibility: visible;" id="Linkedin">
  <defs>
    <clipPath id="__lottie_element_2">
      <rect width="512" height="512" x="0" y="0" />
    </clipPath>
    <symbol id="__lottie_element_10">
      <g>
        <g transform="matrix(4.409999847412109,0,0,4.409999847412109,-1295.3599853515625,-335.04498291015625)"
          opacity="1" style="display: block;">
          <g opacity="1" transform="matrix(1,0,0,1,396.3580017089844,138.0780029296875)">
            <path fill="rgb(0,0,0)" fill-opacity="1"
              d=" M399.8890075683594,68.50499725341797 C383.6180114746094,71.2030029296875 382.9049987792969,62.54600143432617 366.4110107421875,62.54600143432617 C349.9159851074219,62.54600143432617 349.9159851074219,68.5459976196289 333.4209899902344,68.5459976196289 C316.92401123046875,68.5459976196289 316.92401123046875,62.54600143432617 300.4280090332031,62.54600143432617 C283.9330139160156,62.54600143432617 283.9330139160156,68.5459976196289 267.43798828125,68.5459976196289 C250.9429931640625,68.5459976196289 250.9429931640625,62.54600143432617 234.44900512695312,62.54600143432617 C217.9530029296875,62.54600143432617 217.9530029296875,68.5459976196289 201.45799255371094,68.5459976196289 C184.96299743652344,68.5459976196289 184.96299743652344,62.54600143432617 168.46800231933594,62.54600143432617 C151.9720001220703,62.54600143432617 151.9720001220703,68.5459976196289 135.4759979248047,68.5459976196289 C118.97899627685547,68.5459976196289 118.97899627685547,62.54600143432617 102.48100280761719,62.54600143432617 C85.98500061035156,62.54600143432617 85.98500061035156,68.5459976196289 69.48899841308594,68.5459976196289 C52.992000579833984,68.5459976196289 52.992000579833984,62.54600143432617 36.49399948120117,62.54600143432617 C19.99799919128418,62.54600143432617 19.99799919128418,68.5459976196289 3.502000093460083,68.5459976196289 C-12.994999885559082,68.5459976196289 -12.994999885559082,62.54600143432617 -29.490999221801758,62.54600143432617 C-45.987998962402344,62.54600143432617 -45.987998962402344,68.5459976196289 -62.486000061035156,68.5459976196289 C-78.98300170898438,68.5459976196289 -78.98300170898438,62.54600143432617 -95.48100280761719,62.54600143432617 C-111.97899627685547,62.54600143432617 -111.97899627685547,68.5459976196289 -128.47799682617188,68.5459976196289 C-144.97300720214844,68.5459976196289 -144.97300720214844,62.54600143432617 -161.468994140625,62.54600143432617 C-177.96499633789062,62.54600143432617 -177.96499633789062,68.5459976196289 -194.46099853515625,68.5459976196289 C-210.95899963378906,68.5459976196289 -210.95899963378906,62.54600143432617 -227.45700073242188,62.54600143432617 C-243.95599365234375,62.54600143432617 -243.95599365234375,68.5459976196289 -260.4540100097656,68.5459976196289 C-276.9530029296875,68.5459976196289 -276.9530029296875,62.54600143432617 -293.4519958496094,62.54600143432617 C-309.95098876953125,62.54600143432617 -309.95098876953125,68.5459976196289 -326.4490051269531,68.5459976196289 C-342.95001220703125,68.5459976196289 -342.95001220703125,62.54600143432617 -359.45098876953125,62.54600143432617 C-375.9519958496094,62.54600143432617 -376.6629943847656,71.197998046875 -392.9429931640625,68.50499725341797 C-395.635009765625,68.05999755859375 -389.4530029296875,62.816001892089844 -389.4530029296875,60.08700180053711 C-389.4530029296875,57.35599899291992 -395.4530029296875,57.35599899291992 -395.4530029296875,54.625999450683594 C-395.4530029296875,51.89699935913086 -389.4530029296875,51.89699935913086 -389.4530029296875,49.167999267578125 C-389.4530029296875,46.4370002746582 -395.4530029296875,46.4370002746582 -395.4530029296875,43.707000732421875 C-395.4530029296875,40.97700119018555 -389.4530029296875,40.97700119018555 -389.4530029296875,38.24700164794922 C-389.4530029296875,35.516998291015625 -395.4530029296875,35.516998291015625 -395.4530029296875,32.7869987487793 C-395.4530029296875,30.055999755859375 -389.4530029296875,30.055999755859375 -389.4530029296875,27.326000213623047 C-389.4530029296875,24.594999313354492 -395.4530029296875,24.59600067138672 -395.4530029296875,21.864999771118164 C-395.4530029296875,19.135000228881836 -389.4530029296875,19.134000778198242 -389.4530029296875,16.40399932861328 C-389.4530029296875,13.67300033569336 -395.4530029296875,13.67300033569336 -395.4530029296875,10.942000389099121 C-395.4530029296875,8.211000442504883 -389.4530029296875,8.211000442504883 -389.4530029296875,5.479000091552734 C-389.4530029296875,2.747999906539917 -395.4530029296875,2.747999906539917 -395.4530029296875,0.017000000923871994 C-395.4530029296875,-2.7139999866485596 -389.4530029296875,-2.7139999866485596 -389.4530029296875,-5.445000171661377 C-389.4530029296875,-8.175000190734863 -395.4530029296875,-8.175000190734863 -395.4530029296875,-10.906000137329102 C-395.4530029296875,-13.635000228881836 -389.4530029296875,-13.635000228881836 -389.4530029296875,-16.36400032043457 C-389.4530029296875,-19.0939998626709 -395.4530029296875,-19.0939998626709 -395.4530029296875,-21.825000762939453 C-395.4530029296875,-24.555999755859375 -389.4530029296875,-24.55500030517578 -389.4530029296875,-27.285999298095703 C-389.4530029296875,-30.01799964904785 -395.4530029296875,-30.018999099731445 -395.4530029296875,-32.750999450683594 C-395.4530029296875,-35.481998443603516 -389.4530029296875,-35.481998443603516 -389.4530029296875,-38.2140007019043 C-389.4530029296875,-40.94599914550781 -395.4530029296875,-40.94499969482422 -395.4530029296875,-43.678001403808594 C-395.4530029296875,-46.40800094604492 -389.4530029296875,-46.40800094604492 -389.4530029296875,-49.138999938964844 C-389.4530029296875,-51.87200164794922 -395.4530029296875,-51.87200164794922 -395.4530029296875,-54.60499954223633 C-395.4530029296875,-57.340999603271484 -389.4530029296875,-57.34199905395508 -389.4530029296875,-60.07699966430664 C-389.4530029296875,-62.81100082397461 -395.6419982910156,-68.05899810791016 -392.9440002441406,-68.50599670410156 C-376.6730041503906,-71.2040023803711 -375.9590148925781,-62.547000885009766 -359.46600341796875,-62.547000885009766 C-342.97100830078125,-62.547000885009766 -342.97100830078125,-68.5469970703125 -326.47601318359375,-68.5469970703125 C-309.97900390625,-68.5469970703125 -309.97900390625,-62.547000885009766 -293.4830017089844,-62.547000885009766 C-276.98699951171875,-62.547000885009766 -276.98699951171875,-68.5469970703125 -260.49200439453125,-68.5469970703125 C-243.9980010986328,-68.5469970703125 -243.9980010986328,-62.547000885009766 -227.5030059814453,-62.547000885009766 C-211.00799560546875,-62.547000885009766 -211.00799560546875,-68.5469970703125 -194.51300048828125,-68.5469970703125 C-178.01800537109375,-68.5469970703125 -178.01800537109375,-62.547000885009766 -161.5229949951172,-62.547000885009766 C-145.02699279785156,-62.547000885009766 -145.02699279785156,-68.5469970703125 -128.52999877929688,-68.5469970703125 C-112.03299713134766,-68.5469970703125 -112.03299713134766,-62.547000885009766 -95.53500366210938,-62.547000885009766 C-79.03900146484375,-62.547000885009766 -79.03900146484375,-68.5469970703125 -62.542999267578125,-68.5469970703125 C-46.047000885009766,-68.5469970703125 -46.047000885009766,-62.547000885009766 -29.548999786376953,-62.547000885009766 C-13.053000450134277,-62.547000885009766 -13.053000450134277,-68.5469970703125 3.444000005722046,-68.5469970703125 C19.940000534057617,-68.5469970703125 19.940000534057617,-62.547000885009766 36.4370002746582,-62.547000885009766 C52.933998107910156,-62.547000885009766 52.933998107910156,-68.5469970703125 69.43099975585938,-68.5469970703125 C85.92900085449219,-68.5469970703125 85.92900085449219,-62.547000885009766 102.4260025024414,-62.547000885009766 C118.92500305175781,-62.547000885009766 118.92500305175781,-68.5469970703125 135.42300415039062,-68.5469970703125 C151.91799926757812,-68.5469970703125 151.91799926757812,-62.547000885009766 168.41400146484375,-62.547000885009766 C184.91000366210938,-62.547000885009766 184.91000366210938,-68.5469970703125 201.40699768066406,-68.5469970703125 C217.90499877929688,-68.5469970703125 217.90499877929688,-62.547000885009766 234.4029998779297,-62.547000885009766 C250.9010009765625,-62.547000885009766 250.9010009765625,-68.5469970703125 267.3999938964844,-68.5469970703125 C283.89898681640625,-68.5469970703125 283.89898681640625,-62.547000885009766 300.39801025390625,-62.547000885009766 C316.89599609375,-62.547000885009766 316.89599609375,-68.5469970703125 333.3949890136719,-68.5469970703125 C349.89599609375,-68.5469970703125 349.89599609375,-62.547000885009766 366.3970031738281,-62.547000885009766 C382.89801025390625,-62.547000885009766 383.6080017089844,-71.1989974975586 399.88800048828125,-68.50599670410156 C402.5799865722656,-68.06099700927734 396.39801025390625,-62.81700134277344 396.39801025390625,-60.0880012512207 C396.39801025390625,-57.356998443603516 402.39801025390625,-57.356998443603516 402.39801025390625,-54.62699890136719 C402.39801025390625,-51.89799880981445 396.39801025390625,-51.89799880981445 396.39801025390625,-49.16899871826172 C396.39801025390625,-46.4379997253418 402.39801025390625,-46.4379997253418 402.39801025390625,-43.70800018310547 C402.39801025390625,-40.97800064086914 396.39801025390625,-40.97700119018555 396.39801025390625,-38.24700164794922 C396.39801025390625,-35.516998291015625 402.39801025390625,-35.518001556396484 402.39801025390625,-32.78799819946289 C402.39801025390625,-30.058000564575195 396.39801025390625,-30.05699920654297 396.39801025390625,-27.32699966430664 C396.39801025390625,-24.59600067138672 402.39801025390625,-24.597000122070312 402.39801025390625,-21.865999221801758 C402.39801025390625,-19.13599967956543 396.39801025390625,-19.13599967956543 396.39801025390625,-16.405000686645508 C396.39801025390625,-13.673999786376953 402.39801025390625,-13.673999786376953 402.39801025390625,-10.942999839782715 C402.39801025390625,-8.211999893188477 396.39801025390625,-8.211999893188477 396.39801025390625,-5.480000019073486 C396.39801025390625,-2.749000072479248 402.39801025390625,-2.749000072479248 402.39801025390625,-0.017999999225139618 C402.39801025390625,2.7130000591278076 396.39801025390625,2.7130000591278076 396.39801025390625,5.442999839782715 C396.39801025390625,8.173999786376953 402.39801025390625,8.173999786376953 402.39801025390625,10.904999732971191 C402.39801025390625,13.633999824523926 396.39801025390625,13.633999824523926 396.39801025390625,16.363000869750977 C396.39801025390625,19.093000411987305 402.39801025390625,19.093000411987305 402.39801025390625,21.822999954223633 C402.39801025390625,24.55500030517578 396.39801025390625,24.55500030517578 396.39801025390625,27.28700065612793 C396.39801025390625,30.01799964904785 402.39801025390625,30.01799964904785 402.39801025390625,32.75 C402.39801025390625,35.48099899291992 396.39801025390625,35.481998443603516 396.39801025390625,38.2140007019043 C396.39801025390625,40.94599914550781 402.39801025390625,40.94499969482422 402.39801025390625,43.676998138427734 C402.39801025390625,46.40800094604492 396.39801025390625,46.40800094604492 396.39801025390625,49.138999938964844 C396.39801025390625,51.87200164794922 402.39801025390625,51.87200164794922 402.39801025390625,54.60499954223633 C402.39801025390625,57.34000015258789 395.8479919433594,58.10599899291992 396.47900390625,60.766998291015625 C397.5350036621094,65.21700286865234 402.5870056152344,68.05799865722656 399.8890075683594,68.50499725341797z" />
          </g>
        </g>
      </g>
    </symbol>
    <mask id="__lottie_element_10_1" mask-type="alpha">
      <use xmlns:ns1="http://www.w3.org/1999/xlink" ns1:href="#__lottie_element_10" />
    </mask>
  </defs>
  <g clip-path="url(#__lottie_element_2)">
    <g transform="matrix(1.5,0,0,1.5,13.002998352050781,14.630508422851562)" opacity="1" style="display: block;">
      <g opacity="1" transform="matrix(1,0,0,1,162.24600219726562,161.1199951171875)">
        <path fill="rgb(0,0,0)" fill-opacity="1"
          d=" M92.94300079345703,160.8699951171875 C92.94300079345703,160.8699951171875 -92.94300079345703,160.8699951171875 -92.94300079345703,160.8699951171875 C-131.0800018310547,160.8699951171875 -161.99600219726562,129.95399475097656 -161.99600219726562,91.81700134277344 C-161.99600219726562,91.81700134277344 -161.99600219726562,-91.81700134277344 -161.99600219726562,-91.81700134277344 C-161.99600219726562,-129.95399475097656 -131.0800018310547,-160.8699951171875 -92.94300079345703,-160.8699951171875 C-92.94300079345703,-160.8699951171875 92.94300079345703,-160.8699951171875 92.94300079345703,-160.8699951171875 C131.0800018310547,-160.8699951171875 161.99600219726562,-129.95399475097656 161.99600219726562,-91.81700134277344 C161.99600219726562,-91.81700134277344 161.99600219726562,91.81700134277344 161.99600219726562,91.81700134277344 C161.99600219726562,129.95399475097656 131.0800018310547,160.8699951171875 92.94300079345703,160.8699951171875z" />
      </g>
      <g opacity="1" transform="matrix(1,0,0,1,162.68899536132812,159.5489959716797)">
        <path fill="rgb(254,254,254)" fill-opacity="1"
          d=" M-53.611000061035156,-77.72899627685547 C-53.611000061035156,-63.92399978637695 -64.802001953125,-52.73400115966797 -78.60700225830078,-52.73400115966797 C-92.41200256347656,-52.73400115966797 -103.60299682617188,-63.92399978637695 -103.60299682617188,-77.72899627685547 C-103.60299682617188,-91.53299713134766 -92.41200256347656,-102.7229995727539 -78.60700225830078,-102.7229995727539 C-64.802001953125,-102.7229995727539 -53.611000061035156,-91.53299713134766 -53.611000061035156,-77.72899627685547z M-57.54899978637695,-35.084999084472656 C-57.54899978637695,-35.084999084472656 -99.59500122070312,-35.084999084472656 -99.59500122070312,-35.084999084472656 C-99.59500122070312,-35.084999084472656 -99.59500122070312,102.7229995727539 -99.59500122070312,102.7229995727539 C-99.59500122070312,102.7229995727539 -57.54899978637695,102.7229995727539 -57.54899978637695,102.7229995727539 C-57.54899978637695,102.7229995727539 -57.54899978637695,-35.084999084472656 -57.54899978637695,-35.084999084472656z M10.229999542236328,-15.986000061035156 C10.229999542236328,-15.986000061035156 10.229999542236328,-35.084999084472656 10.229999542236328,-35.084999084472656 C10.229999542236328,-35.084999084472656 -31.464000701904297,-35.084999084472656 -31.464000701904297,-35.084999084472656 C-31.464000701904297,-35.084999084472656 -31.464000701904297,102.7229995727539 -31.464000701904297,102.7229995727539 C-31.464000701904297,102.7229995727539 10.229999542236328,102.7229995727539 10.229999542236328,102.7229995727539 C10.229999542236328,102.7229995727539 10.229999542236328,48.26599884033203 10.229999542236328,48.26599884033203 C10.229999542236328,24.679000854492188 13.385000228881836,13.392999649047852 19.073999404907227,7.2220001220703125 C19.184999465942383,7.1020002365112305 19.29599952697754,6.982999801635742 19.406999588012695,6.861999988555908 C28.075000762939453,-2.5390000343322754 44.26100158691406,-4.006999969482422 52.41699981689453,5.27400016784668 C56.904998779296875,10.380999565124512 59.13100051879883,17.613000869750977 59.09600067138672,26.49799919128418 C59.09600067138672,26.49799919128418 59.09600067138672,102.7229995727539 59.09600067138672,102.7229995727539 C59.09600067138672,102.7229995727539 103.60299682617188,102.7229995727539 103.60299682617188,102.7229995727539 C103.60299682617188,102.7229995727539 103.60299682617188,30.118999481201172 103.60299682617188,30.118999481201172 C103.60299682617188,-22.148000717163086 84.11699676513672,-36.45899963378906 58.888999938964844,-38.39899826049805 C58.150001525878906,-38.45500183105469 57.417999267578125,-38.512001037597656 56.69300079345703,-38.56800079345703 C42.36800003051758,-39.67599868774414 22.429000854492188,-36.80799865722656 10.229999542236328,-15.986000061035156z" />
      </g>
    </g>
    <g mask="url(#__lottie_element_10_1)" style="display: block;">
      <g transform="matrix(1.5,0,0,1.5,13.002998352050781,14.630508422851562)" opacity="1">
        <g opacity="1" transform="matrix(1,0,0,1,162.68899536132812,159.5489959716797)">
          <path fill="rgb(254,254,254)" fill-opacity="1"
            d=" M-53.611000061035156,-77.72899627685547 C-53.611000061035156,-63.92399978637695 -64.802001953125,-52.73400115966797 -78.60700225830078,-52.73400115966797 C-92.41200256347656,-52.73400115966797 -103.60299682617188,-63.92399978637695 -103.60299682617188,-77.72899627685547 C-103.60299682617188,-91.53299713134766 -92.41200256347656,-102.7229995727539 -78.60700225830078,-102.7229995727539 C-64.802001953125,-102.7229995727539 -53.611000061035156,-91.53299713134766 -53.611000061035156,-77.72899627685547z M-57.54899978637695,-35.084999084472656 C-57.54899978637695,-35.084999084472656 -99.59500122070312,-35.084999084472656 -99.59500122070312,-35.084999084472656 C-99.59500122070312,-35.084999084472656 -99.59500122070312,102.7229995727539 -99.59500122070312,102.7229995727539 C-99.59500122070312,102.7229995727539 -57.54899978637695,102.7229995727539 -57.54899978637695,102.7229995727539 C-57.54899978637695,102.7229995727539 -57.54899978637695,-35.084999084472656 -57.54899978637695,-35.084999084472656z M10.229999542236328,-15.986000061035156 C10.229999542236328,-15.986000061035156 10.229999542236328,-35.084999084472656 10.229999542236328,-35.084999084472656 C10.229999542236328,-35.084999084472656 -31.464000701904297,-35.084999084472656 -31.464000701904297,-35.084999084472656 C-31.464000701904297,-35.084999084472656 -31.464000701904297,102.7229995727539 -31.464000701904297,102.7229995727539 C-31.464000701904297,102.7229995727539 10.229999542236328,102.7229995727539 10.229999542236328,102.7229995727539 C10.229999542236328,102.7229995727539 10.229999542236328,48.26599884033203 10.229999542236328,48.26599884033203 C10.229999542236328,24.679000854492188 13.385000228881836,13.392999649047852 19.073999404907227,7.2220001220703125 C19.184999465942383,7.1020002365112305 19.29599952697754,6.982999801635742 19.406999588012695,6.861999988555908 C28.075000762939453,-2.5390000343322754 44.26100158691406,-4.006999969482422 52.41699981689453,5.27400016784668 C56.904998779296875,10.380999565124512 59.13100051879883,17.613000869750977 59.09600067138672,26.49799919128418 C59.09600067138672,26.49799919128418 59.09600067138672,102.7229995727539 59.09600067138672,102.7229995727539 C59.09600067138672,102.7229995727539 103.60299682617188,102.7229995727539 103.60299682617188,102.7229995727539 C103.60299682617188,102.7229995727539 103.60299682617188,30.118999481201172 103.60299682617188,30.118999481201172 C103.60299682617188,-22.148000717163086 84.11699676513672,-36.45899963378906 58.888999938964844,-38.39899826049805 C58.150001525878906,-38.45500183105469 57.417999267578125,-38.512001037597656 56.69300079345703,-38.56800079345703 C42.36800003051758,-39.67599868774414 22.429000854492188,-36.80799865722656 10.229999542236328,-15.986000061035156z" />
        </g>
      </g>
    </g>
  </g>
</svg>