<svg xmlns="http://www.w3.org/2000/svg" xmlns:xlink="http://www.w3.org/1999/xlink" viewBox="0 0 512 512" width="512"
  height="512" preserveAspectRatio="xMidYMid meet"
  style="width: 100%; height: 100%; transform: translate3d(0px, 0px, 0px); content-visibility: visible;" id="Twitter">
  <g clip-path="url(#__lottie_element_410)">
    <g transform="matrix(1.5,0,0,1.5,12.059501647949219,8.120513916015625)" opacity="1" style="display: block;">
      <g opacity="1" transform="matrix(1,0,0,1,162.2449951171875,165.62100219726562)">
        <path fill="rgb(0,0,0)" fill-opacity="1"
          d=" M91.98400115966797,165.3699951171875 C91.98400115966797,165.3699951171875 -91.98400115966797,165.3699951171875 -91.98400115966797,165.3699951171875 C-130.6510009765625,165.3699951171875 -161.9949951171875,134.0240020751953 -161.9949951171875,95.35700225830078 C-161.9949951171875,95.35700225830078 -161.9949951171875,-95.35900115966797 -161.9949951171875,-95.35900115966797 C-161.9949951171875,-134.0260009765625 -130.6510009765625,-165.3699951171875 -91.98400115966797,-165.3699951171875 C-91.98400115966797,-165.3699951171875 91.98400115966797,-165.3699951171875 91.98400115966797,-165.3699951171875 C130.6510009765625,-165.3699951171875 161.9949951171875,-134.0260009765625 161.9949951171875,-95.35900115966797 C161.9949951171875,-95.35900115966797 161.9949951171875,95.35700225830078 161.9949951171875,95.35700225830078 C161.9949951171875,134.0240020751953 130.6510009765625,165.3699951171875 91.98400115966797,165.3699951171875z" />
      </g>
      <g opacity="1" transform="matrix(1,0,0,1,164.1269989013672,170.19400024414062)">
        <path fill="rgb(254,254,254)" fill-opacity="1"
          d=" M83.44400024414062,-55.159000396728516 C78.10900115966797,-52.74599838256836 72.20899963378906,-51.279998779296875 66.45099639892578,-50.3129997253418 C69.18399810791016,-50.77299880981445 73.197998046875,-55.720001220703125 74.80599975585938,-57.72100067138672 C77.26499938964844,-60.77199935913086 79.2979965209961,-64.2509994506836 80.4469985961914,-68.00599670410156 C80.59400177001953,-68.29900360107422 80.7020034790039,-68.66899871826172 80.40899658203125,-68.89099884033203 C80.04100036621094,-69.03700256347656 79.8010025024414,-68.96099853515625 79.50900268554688,-68.81400299072266 C73.08200073242188,-65.37100219726562 66.43399810791016,-62.87300109863281 59.36000061035156,-61.10499954223633 C58.775001525878906,-60.95899963378906 58.34000015258789,-61.10499954223633 57.97100067138672,-61.472999572753906 C57.38399887084961,-62.1349983215332 56.83399963378906,-62.75899887084961 56.209999084472656,-63.27399826049805 C53.236000061035156,-65.80400085449219 50.04800033569336,-67.78800201416016 46.45000076293945,-69.25399780273438 C41.72600173950195,-71.17900085449219 36.56700134277344,-71.99400329589844 31.481000900268555,-71.66400146484375 C26.531999588012695,-71.34300231933594 21.67300033569336,-69.9489974975586 17.280000686645508,-67.65399932861328 C12.878999710083008,-65.3550033569336 8.951000213623047,-62.154998779296875 5.823999881744385,-58.29600143432617 C2.5889999866485596,-54.30400085449219 0.20399999618530273,-49.59000015258789 -1.0180000066757202,-44.59400177001953 C-2.197000026702881,-39.77199935913086 -2.0999999046325684,-35 -1.3799999952316284,-30.125 C-1.2719999551773071,-29.316999435424805 -1.343999981880188,-29.20800018310547 -2.0759999752044678,-29.31800079345703 C-29.74799919128418,-33.43600082397461 -52.685001373291016,-43.33700180053711 -71.30599975585938,-64.55500030517578 C-72.11499786376953,-65.47599792480469 -72.5530014038086,-65.47599792480469 -73.21499633789062,-64.48500061035156 C-81.36399841308594,-52.270999908447266 -77.41000366210938,-32.64899826049805 -67.23200225830078,-23.006000518798828 C-65.8740005493164,-21.719999313354492 -64.47899627685547,-20.43400001525879 -62.97700119018555,-19.261999130249023 C-63.525001525878906,-19.14900016784668 -70.29900360107422,-19.882999420166016 -76.33599853515625,-23.006000518798828 C-77.14399719238281,-23.516000747680664 -77.55000305175781,-23.222999572753906 -77.62100219726562,-22.30699920654297 C-77.69599914550781,-20.98699951171875 -77.58300018310547,-19.773000717163086 -77.4020004272461,-18.340999603271484 C-75.83799743652344,-5.960999965667725 -67.26399993896484,5.491000175476074 -55.52299880981445,9.958000183105469 C-54.12799835205078,10.545000076293945 -52.58700180053711,11.0600004196167 -51.08399963378906,11.3149995803833 C-53.75899887084961,11.902000427246094 -56.513999938964844,12.321999549865723 -64.18599700927734,11.722000122070312 C-65.14099884033203,11.538000106811523 -65.50599670410156,12.015999794006348 -65.14099884033203,12.932000160217285 C-59.375999450683594,28.645999908447266 -46.930999755859375,33.32099914550781 -37.61199951171875,35.986000061035156 C-36.3650016784668,36.202999114990234 -35.11600112915039,36.202999114990234 -33.86399841308594,36.49599838256836 C-33.939998626708984,36.60900115966797 -34.013999938964844,36.608001708984375 -34.08599853515625,36.71699905395508 C-37.178001403808594,41.43000030517578 -47.89400100708008,44.9379997253418 -52.887001037597656,46.68199920654297 C-61.9630012512207,49.854000091552734 -71.84700012207031,51.28099822998047 -81.44000244140625,50.33700180053711 C-82.9749984741211,50.11199951171875 -83.2979965209961,50.12799835205078 -83.71399688720703,50.33700180053711 C-84.13500213623047,50.59700012207031 -83.76699829101562,50.9640007019043 -83.27400207519531,51.36199951171875 C-81.3270034790039,52.64799880981445 -79.34600067138672,53.7859992980957 -77.3270034790039,54.88800048828125 C-71.23400115966797,58.117000579833984 -64.88200378417969,60.6879997253418 -58.24100112915039,62.52199935913086 C-23.93899917602539,71.99400329589844 14.697999954223633,65.03299713134766 40.45399856567383,39.44499969482422 C60.67900085449219,19.350000381469727 67.76799774169922,-8.362000465393066 67.76799774169922,-36.10900115966797 C67.76799774169922,-37.19599914550781 69.0510025024414,-37.79499816894531 69.81300354003906,-38.36800003051758 C75.07599639892578,-42.321998596191406 79.31999969482422,-47.053001403808594 83.24500274658203,-52.33599853515625 C84.12699890136719,-53.52299880981445 84.13500213623047,-54.577999114990234 84.13500213623047,-55.01300048828125 C84.13500213623047,-55.01300048828125 84.13500213623047,-55.159000396728516 84.13500213623047,-55.159000396728516 C84.13500213623047,-55.60300064086914 84.12699890136719,-55.470001220703125 83.44400024414062,-55.159000396728516z" />
      </g>
    </g>
    <g mask="url(#__lottie_element_419_1)" style="display: block;">
      <g transform="matrix(1.5,0,0,1.5,12.059501647949219,8.120513916015625)" opacity="1">
        <g opacity="1" transform="matrix(1,0,0,1,162.2449951171875,165.62100219726562)">
          <path fill="url(#__lottie_element_418)" fill-opacity="1"
            d=" M91.98400115966797,165.3699951171875 C91.98400115966797,165.3699951171875 -91.98400115966797,165.3699951171875 -91.98400115966797,165.3699951171875 C-130.6510009765625,165.3699951171875 -161.9949951171875,134.0240020751953 -161.9949951171875,95.35700225830078 C-161.9949951171875,95.35700225830078 -161.9949951171875,-95.35900115966797 -161.9949951171875,-95.35900115966797 C-161.9949951171875,-134.0260009765625 -130.6510009765625,-165.3699951171875 -91.98400115966797,-165.3699951171875 C-91.98400115966797,-165.3699951171875 91.98400115966797,-165.3699951171875 91.98400115966797,-165.3699951171875 C130.6510009765625,-165.3699951171875 161.9949951171875,-134.0260009765625 161.9949951171875,-95.35900115966797 C161.9949951171875,-95.35900115966797 161.9949951171875,95.35700225830078 161.9949951171875,95.35700225830078 C161.9949951171875,134.0240020751953 130.6510009765625,165.3699951171875 91.98400115966797,165.3699951171875z" />
        </g>
        <g opacity="1" transform="matrix(1,0,0,1,164.1269989013672,170.19400024414062)">
          <path fill="rgb(254,254,254)" fill-opacity="1"
            d=" M83.44400024414062,-55.159000396728516 C78.10900115966797,-52.74599838256836 72.20899963378906,-51.279998779296875 66.45099639892578,-50.3129997253418 C69.18399810791016,-50.77299880981445 73.197998046875,-55.720001220703125 74.80599975585938,-57.72100067138672 C77.26499938964844,-60.77199935913086 79.2979965209961,-64.2509994506836 80.4469985961914,-68.00599670410156 C80.59400177001953,-68.29900360107422 80.7020034790039,-68.66899871826172 80.40899658203125,-68.89099884033203 C80.04100036621094,-69.03700256347656 79.8010025024414,-68.96099853515625 79.50900268554688,-68.81400299072266 C73.08200073242188,-65.37100219726562 66.43399810791016,-62.87300109863281 59.36000061035156,-61.10499954223633 C58.775001525878906,-60.95899963378906 58.34000015258789,-61.10499954223633 57.97100067138672,-61.472999572753906 C57.38399887084961,-62.1349983215332 56.83399963378906,-62.75899887084961 56.209999084472656,-63.27399826049805 C53.236000061035156,-65.80400085449219 50.04800033569336,-67.78800201416016 46.45000076293945,-69.25399780273438 C41.72600173950195,-71.17900085449219 36.56700134277344,-71.99400329589844 31.481000900268555,-71.66400146484375 C26.531999588012695,-71.34300231933594 21.67300033569336,-69.9489974975586 17.280000686645508,-67.65399932861328 C12.878999710083008,-65.3550033569336 8.951000213623047,-62.154998779296875 5.823999881744385,-58.29600143432617 C2.5889999866485596,-54.30400085449219 0.20399999618530273,-49.59000015258789 -1.0180000066757202,-44.59400177001953 C-2.197000026702881,-39.77199935913086 -2.0999999046325684,-35 -1.3799999952316284,-30.125 C-1.2719999551773071,-29.316999435424805 -1.343999981880188,-29.20800018310547 -2.0759999752044678,-29.31800079345703 C-29.74799919128418,-33.43600082397461 -52.685001373291016,-43.33700180053711 -71.30599975585938,-64.55500030517578 C-72.11499786376953,-65.47599792480469 -72.5530014038086,-65.47599792480469 -73.21499633789062,-64.48500061035156 C-81.36399841308594,-52.270999908447266 -77.41000366210938,-32.64899826049805 -67.23200225830078,-23.006000518798828 C-65.8740005493164,-21.719999313354492 -64.47899627685547,-20.43400001525879 -62.97700119018555,-19.261999130249023 C-63.525001525878906,-19.14900016784668 -70.29900360107422,-19.882999420166016 -76.33599853515625,-23.006000518798828 C-77.14399719238281,-23.516000747680664 -77.55000305175781,-23.222999572753906 -77.62100219726562,-22.30699920654297 C-77.69599914550781,-20.98699951171875 -77.58300018310547,-19.773000717163086 -77.4020004272461,-18.340999603271484 C-75.83799743652344,-5.960999965667725 -67.26399993896484,5.491000175476074 -55.52299880981445,9.958000183105469 C-54.12799835205078,10.545000076293945 -52.58700180053711,11.0600004196167 -51.08399963378906,11.3149995803833 C-53.75899887084961,11.902000427246094 -56.513999938964844,12.321999549865723 -64.18599700927734,11.722000122070312 C-65.14099884033203,11.538000106811523 -65.50599670410156,12.015999794006348 -65.14099884033203,12.932000160217285 C-59.375999450683594,28.645999908447266 -46.930999755859375,33.32099914550781 -37.61199951171875,35.986000061035156 C-36.3650016784668,36.202999114990234 -35.11600112915039,36.202999114990234 -33.86399841308594,36.49599838256836 C-33.939998626708984,36.60900115966797 -34.013999938964844,36.608001708984375 -34.08599853515625,36.71699905395508 C-37.178001403808594,41.43000030517578 -47.89400100708008,44.9379997253418 -52.887001037597656,46.68199920654297 C-61.9630012512207,49.854000091552734 -71.84700012207031,51.28099822998047 -81.44000244140625,50.33700180053711 C-82.9749984741211,50.11199951171875 -83.2979965209961,50.12799835205078 -83.71399688720703,50.33700180053711 C-84.13500213623047,50.59700012207031 -83.76699829101562,50.9640007019043 -83.27400207519531,51.36199951171875 C-81.3270034790039,52.64799880981445 -79.34600067138672,53.7859992980957 -77.3270034790039,54.88800048828125 C-71.23400115966797,58.117000579833984 -64.88200378417969,60.6879997253418 -58.24100112915039,62.52199935913086 C-23.93899917602539,71.99400329589844 14.697999954223633,65.03299713134766 40.45399856567383,39.44499969482422 C60.67900085449219,19.350000381469727 67.76799774169922,-8.362000465393066 67.76799774169922,-36.10900115966797 C67.76799774169922,-37.19599914550781 69.0510025024414,-37.79499816894531 69.81300354003906,-38.36800003051758 C75.07599639892578,-42.321998596191406 79.31999969482422,-47.053001403808594 83.24500274658203,-52.33599853515625 C84.12699890136719,-53.52299880981445 84.13500213623047,-54.577999114990234 84.13500213623047,-55.01300048828125 C84.13500213623047,-55.01300048828125 84.13500213623047,-55.159000396728516 84.13500213623047,-55.159000396728516 C84.13500213623047,-55.60300064086914 84.12699890136719,-55.470001220703125 83.44400024414062,-55.159000396728516z" />
        </g>
      </g>
    </g>
  </g>
</svg>